# xmcd CD database file
#
# Track frame offsets:
#	182
#	44465
#	79617
#	99067
#	137417
#	169855
#	184482
#
# Disc length: 3017 seconds
#
# Revision: 1
# Processed by: cddbd v1.5.1PL0 Copyright (c) Steve Scherf et al.
# Submitted via: CDex 1.51
#
DISCID=500bc707
DTITLE=Chick Corea and Friends, featuring Lionel Hampton - Chick Corea and Friends, featuring Lionel Hampton, Seabreeze
DYEAR=1993
DGENRE=Jazz
TTITLE0=Seabreeze
TTITLE1=I Ain't Mad At You
TTITLE2=Moment's Notice
TTITLE3=Blues For Oliver
TTITLE4=It Don't Mean A Thing (If It Ain't Got That Swing)
TTITLE5=Come Rain Or Come Shine
TTITLE6=Fiesta Piano Solo
EXTD=YEAR: 1993
EXTT0=
EXTT1=
EXTT2=
EXTT3=
EXTT4=
EXTT5=
EXTT6=
PLAYORDER=
